{
  "accessors": [
    {
      "bufferView": 0,
      "componentType": 5126,
      "count": 8534,
      "max": [
        1.1760433912277222,
        0.18271219730377197,
        1.5688492059707642
      ],
      "min": [
        -0.49738699197769165,
        -3.0709099769592285,
        -0.0034196400083601475
      ],
      "type": "VEC3"
    },
    {
      "bufferView": 1,
      "componentType": 5125,
      "count": 16494,
      "type": "SCALAR"
    },
    {
      "bufferView": 2,
      "componentType": 5126,
      "count": 8534,
      "type": "VEC3"
    },
    {
      "bufferView": 3,
      "componentType": 5126,
      "count": 8534,
      "type": "VEC4"
    },
    {
      "bufferView": 4,
      "componentType": 5126,
      "count": 8534,
      "type": "VEC2"
    },
    {
      "bufferView": 5,
      "componentType": 5126,
      "count": 8534,
      "max": [
        1.1760433912277222,
        0.18271219730377197,
        1.5688492059707642
      ],
      "min": [
        -0.49738699197769165,
        -3.0709099769592285,
        -0.0034196400083601475
      ],
      "type": "VEC3"
    },
    {
      "bufferView": 6,
      "componentType": 5123,
      "count": 267,
      "type": "SCALAR"
    },
    {
      "bufferView": 7,
      "componentType": 5126,
      "count": 8534,
      "type": "VEC3"
    },
    {
      "bufferView": 8,
      "componentType": 5126,
      "count": 8534,
      "type": "VEC4"
    },
    {
      "bufferView": 9,
      "componentType": 5126,
      "count": 8534,
      "type": "VEC2"
    }
  ],
  "asset": {
    "version": "2.0"
  },
  "bufferViews": [
    {
      "buffer": 0,
      "byteLength": 102408,
      "target": 34962
    },
    {
      "buffer": 1,
      "byteLength": 65976,
      "target": 34963
    },
    {
      "buffer": 2,
      "byteLength": 102408,
      "target": 34962
    },
    {
      "buffer": 3,
      "byteLength": 136544,
      "target": 34962
    },
    {
      "buffer": 4,
      "byteLength": 68272,
      "target": 34962
    },
    {
      "buffer": 0,
      "byteLength": 102408,
      "target": 34962
    },
    {
      "buffer": 5,
      "byteLength": 534,
      "target": 34963
    },
    {
      "buffer": 2,
      "byteLength": 102408,
      "target": 34962
    },
    {
      "buffer": 3,
      "byteLength": 136544,
      "target": 34962
    },
    {
      "buffer": 4,
      "byteLength": 68272,
      "target": 34962
    }
  ],
  "buffers": [
    {
      "byteLength": 102408,
      "uri": "data:application/octet-stream;base64,"
    },
    {
      "byteLength": 65976,
      "uri": "data:application/octet-stream;base64,"
    },
    {
      "byteLength": 102408,
      "uri": "data:application/octet-stream;base64,"
    },
    {
      "byteLength": 136544,
      "uri": "data:application/octet-stream;base64,"
    },
    {
      "byteLength": 68272,
      "uri": "data:application/octet-stream;base64,"
    },
    {
      "byteLength": 534,
      "uri": "data:application/octet-stream;base64,"
    }
  ],
  "materials": [
    {
      "doubleSided": true,
      "name": "Plow",
      "normalTexture" : {
      "index" : 1,
      "scale" : 2
      },
      "pbrMetallicRoughness": {
        "baseColorTexture" : {"index" : 2},
        "metallicFactor" : 0,
        "metallicRoughnessTexture" : { "index" : 0 },
        "baseColorFactor": [
          1.0,
          1.0,
          1.0,
          1.0
        ]
      }
    }
  ],
  "images": [
    {
         "uri" : "38a3b57055c44750801ce560070b820a_R_plow_paint_Plow_Roughness.png"
    },
    {
         "uri" : "3d3144fd4ab6460e8e579199960c38e1_N_plow_paint_Plow_Normal.png"
    },
    {
         "uri" : "47095024ae74406e99a055de53e3dbe9_RGB_plow_paint_Plow_BaseColor.png"
    },
    {
         "uri" : "ad94fc6957d84ae1abb72630dc4a4c34_R_plow_paint_Plow_Metallic.png"
    }
  ],
  "textures": [
    {
         "source" : 0
    },
    {
         "source" : 1
    },
    {
         "source" : 2
    },
    {
         "source" : 3
    }
  ],
  "meshes": [
    {
      "name": "Plow_Plow_0",
      "primitives": [
        {
          "attributes": {
            "NORMAL": 2,
            "POSITION": 0,
            "TANGENT": 3,
            "TEXCOORD_0": 4
          },
          "indices": 1,
          "material": 0,
          "mode": 5
        },
        {
          "attributes": {
            "NORMAL": 7,
            "POSITION": 5,
            "TANGENT": 8,
            "TEXCOORD_0": 9
          },
          "indices": 6,
          "material": 0,
          "mode": 4
        }
      ]
    }
  ],
  "nodes": [
    {
      "mesh": 0,
      "name": "Plow_Plow_0"
    },
    {
      "children": [
        0
      ],
      "name": "Plow",
      "rotation": [
        -0.7071068387878171,
        0.0,
        0.0,
        0.7071067235852733
      ],
      "scale": [
        100.0,
        100.0,
        100.0
      ],
      "translation": [
        0.0,
        0.0,
        0.0
      ]
    },
    {
      "children": [
        1
      ],
      "name": "RootNode"
    },
    {
      "children": [
        2
      ],
      "name": "plow.fbx",
      "rotation": [
        1.1102230246251565e-16,
        0.0,
        0.0,
        1.0
      ],
      "scale": [
        1.0,
        1.0,
        1.0
      ],
      "translation": [
        0.0,
        0.0,
        0.0
      ]
    }
  ],
  "scene": 0,
  "scenes": [
    {
      "nodes": [
        3
      ]
    }
  ]
}
